HIERARCHY
ROOT Hips
{
	OFFSET -0.001795 -0.223333 0.028219
	CHANNELS 6 Xposition Yposition Zposition Zrotation Yrotation Xrotation 
	JOINT LeftUpLeg
	{
		OFFSET 0.069520 -0.091406 -0.006815
		CHANNELS 3 Zrotation Yrotation Xrotation
		JOINT LeftLeg
		{
			OFFSET 0.034277 -0.375199 -0.004496
			CHANNELS 3 Zrotation Yrotation Xrotation
			JOINT LeftFoot
			{
				OFFSET -0.013596 -0.397961 -0.043693
				CHANNELS 3 Zrotation Yrotation Xrotation
				JOINT LeftToe
				{
					OFFSET 0.026358 -0.055791 0.119288
					CHANNELS 3 Zrotation Yrotation Xrotation
					End Site
					{
						OFFSET 0.000000 0.000000 0.000000
					}
				}
			}
		}
	}
	JOINT RightUpLeg
	{
		OFFSET -0.067670 -0.090522 -0.004320
		CHANNELS 3 Zrotation Yrotation Xrotation
		JOINT RightLeg
		{
			OFFSET -0.038290 -0.382569 -0.008850
			CHANNELS 3 Zrotation Yrotation Xrotation
			JOINT RightFoot
			{
				OFFSET 0.015774 -0.398415 -0.042312
				CHANNELS 3 Zrotation Yrotation Xrotation
				JOINT RightToe
				{
					OFFSET -0.025372 -0.048144 0.123348
					CHANNELS 3 Zrotation Yrotation Xrotation
					End Site
					{
						OFFSET 0.000000 0.000000 0.000000
					}
				}
			}
		}
	}
	JOINT Spine
	{
		OFFSET -0.002533 0.108963 -0.026696
		CHANNELS 3 Zrotation Yrotation Xrotation
		JOINT Spine1
		{
			OFFSET 0.005487 0.135180 0.001092
			CHANNELS 3 Zrotation Yrotation Xrotation
			JOINT Spine2
			{
				OFFSET 0.001457 0.052922 0.025425
				CHANNELS 3 Zrotation Yrotation Xrotation
				JOINT Neck
				{
					OFFSET -0.002778 0.213870 -0.042857
					CHANNELS 3 Zrotation Yrotation Xrotation
					JOINT Head
					{
						OFFSET 0.005152 0.064970 0.051349
						CHANNELS 3 Zrotation Yrotation Xrotation
						End Site
						{
							OFFSET 0.000000 0.000000 0.000000
						}
					}
				}
				JOINT LeftShoulder
				{
					OFFSET 0.078845 0.121749 -0.034090
					CHANNELS 3 Zrotation Yrotation Xrotation
					JOINT LeftArm
					{
						OFFSET 0.090977 0.030469 -0.008868
						CHANNELS 3 Zrotation Yrotation Xrotation
						JOINT LeftForeArm
						{
							OFFSET 0.259612 -0.012772 -0.027456
							CHANNELS 3 Zrotation Yrotation Xrotation
							JOINT LeftHand
							{
								OFFSET 0.249234 0.008986 -0.001171
								CHANNELS 3 Zrotation Yrotation Xrotation
								End Site
								{
									OFFSET 0.000000 0.000000 0.000000
								}
							}
						}
					}
				}
				JOINT RightShoulder
				{
					OFFSET -0.081759 0.118833 -0.038615
					CHANNELS 3 Zrotation Yrotation Xrotation
					JOINT RightArm
					{
						OFFSET -0.096012 0.032551 -0.009143
						CHANNELS 3 Zrotation Yrotation Xrotation
						JOINT RightForeArm
						{
							OFFSET -0.253742 -0.013329 -0.021401
							CHANNELS 3 Zrotation Yrotation Xrotation
							JOINT RightHand
							{
								OFFSET -0.255298 0.007772 -0.005559
								CHANNELS 3 Zrotation Yrotation Xrotation
								End Site
								{
									OFFSET 0.000000 0.000000 0.000000
								}
							}
						}
					}
				}
			}
		}
	}
}
MOTION
Frames: 7
Frame Time: 0.050000
0.000000 0.938023 0.000000 -0.620808 -5.913603 3.046131 3.152596 0.018522 0.626802 -3.274300 0.407332 -1.885843 5.665957 12.761872 6.846296 0.000000 0.000000 0.000000 -3.553445 0.224627 -1.098996 3.906402 -0.353767 -0.342757 -5.016109 -13.435650 4.636587 0.000000 0.000000 0.000000 7.022191 -0.221843 1.118653 -5.692975 1.942966 -20.677929 -1.288889 8.536410 28.604481 9.100658 -2.849877 -26.480853 0.000000 0.000000 0.000000 -22.081773 -6.506675 1.144032 -52.928218 -4.079651 -6.681176 5.512994 -24.051086 -0.070167 0.000000 0.000000 0.000000 27.629638 -4.299516 -2.818747 58.835801 4.631092 -6.421770 -4.195057 26.323456 0.803157 0.000000 0.000000 0.000000 
0.000181 0.937649 0.000126 -0.830117 -5.837282 3.101650 3.869428 0.029891 0.944648 -4.113893 0.496429 -2.224244 6.129773 13.489846 5.447118 0.000000 0.000000 0.000000 -3.366975 0.230759 -1.291552 3.762956 -0.338585 0.112408 -5.237902 -13.888360 4.582749 0.000000 0.000000 0.000000 7.601734 -0.184561 0.651109 -6.296383 2.124839 -20.168546 -1.599454 8.713776 28.117210 9.214135 -2.610225 -28.036415 0.000000 0.000000 0.000000 -21.371041 -5.684562 0.630684 -53.952681 -4.113214 -6.755781 7.906928 -24.192141 -0.566650 0.000000 0.000000 0.000000 27.681649 -5.112660 -3.304791 60.172722 3.540130 -6.976238 -4.459463 27.713235 0.845614 0.000000 0.000000 0.000000 
0.000357 0.937593 0.000080 -0.573325 -5.700078 3.187965 3.583149 -0.003649 0.392936 -4.500304 0.541431 -1.353332 6.527369 14.247000 5.813922 0.000000 0.000000 0.000000 -3.595388 0.264140 -1.681008 3.667806 -0.331377 0.083875 -5.244584 -14.036115 5.190945 0.000000 0.000000 0.000000 7.665933 -0.167291 0.462398 -6.607637 2.201453 -20.636201 -1.580336 7.718155 28.759428 8.760223 -2.700529 -26.910866 0.000000 0.000000 0.000000 -21.301865 -5.779207 1.012427 -54.415264 -4.660644 -6.697612 8.601102 -22.569008 -0.595272 0.000000 0.000000 0.000000 27.810280 -4.395886 -3.165164 59.685532 3.769745 -6.847320 -3.971079 26.133711 0.808267 0.000000 0.000000 0.000000 
0.000429 0.937895 0.000092 -0.404327 -5.819072 3.078424 3.242212 0.015882 0.613742 -4.531987 0.546898 -1.296756 6.506677 14.187763 5.486610 0.000000 0.000000 0.000000 -3.783940 0.288163 -1.961963 3.746178 -0.332678 0.633823 -5.759177 -15.103151 5.228767 0.000000 0.000000 0.000000 7.702257 -0.160368 0.424407 -6.840401 2.269644 -20.521864 -1.520375 8.178096 28.767425 8.996003 -2.764502 -26.917326 0.000000 0.000000 0.000000 -21.335169 -6.312857 1.187704 -54.667408 -3.996297 -6.978677 9.355030 -22.791246 -0.767038 0.000000 0.000000 0.000000 28.938486 -4.830848 -3.390186 59.257761 3.662915 -6.934624 -4.422848 27.018929 0.794122 0.000000 0.000000 0.000000 
0.000402 0.938365 -0.000016 -0.293657 -5.702505 2.906648 3.063213 0.020252 0.642149 -4.291196 0.519579 -1.089867 6.377254 13.953871 5.501470 0.000000 0.000000 0.000000 -3.871483 0.284859 -1.906287 3.429198 -0.301806 0.841678 -5.570773 -14.669082 4.990478 0.000000 0.000000 0.000000 7.305335 -0.188576 0.774128 -6.236926 2.120096 -19.976819 -1.916323 7.939056 28.064733 9.024107 -2.850092 -26.482765 0.000000 0.000000 0.000000 -21.643596 -6.150038 1.085290 -54.593581 -3.911192 -6.934647 9.193494 -22.804708 -0.741051 0.000000 0.000000 0.000000 28.966272 -4.414295 -3.184244 59.215014 3.629538 -6.873416 -4.822203 26.274412 0.653309 0.000000 0.000000 0.000000 
0.000379 0.938689 -0.000167 -0.349698 -5.711003 2.828806 2.949287 0.036589 0.850830 -4.279563 0.516993 -1.336192 6.456118 14.095265 5.428707 0.000000 0.000000 0.000000 -4.031821 0.286082 -1.861924 3.503083 -0.306908 1.037450 -5.387155 -14.297216 5.024057 0.000000 0.000000 0.000000 7.157878 -0.221577 1.128820 -6.128738 2.082624 -20.238372 -1.867833 7.858875 28.032653 8.893386 -2.783510 -26.488579 0.000000 0.000000 0.000000 -21.577722 -6.241094 1.163250 -54.461989 -3.662510 -7.030126 8.604699 -22.745206 -0.627166 0.000000 0.000000 0.000000 29.354124 -4.294905 -3.170833 58.743601 3.315972 -6.990961 -4.652289 26.171360 0.668922 0.000000 0.000000 0.000000 
0.000313 0.938998 -0.000388 -0.351571 -5.713803 2.634804 2.792544 0.064237 1.188610 -4.354127 0.524901 -1.490677 6.550689 14.296551 5.801751 0.000000 0.000000 0.000000 -3.864966 0.274341 -1.779467 3.255934 -0.279259 1.304294 -5.260550 -14.012694 4.919084 0.000000 0.000000 0.000000 7.061145 -0.254611 1.511781 -6.075274 2.071181 -20.140904 -1.892677 7.696838 27.749609 8.984376 -2.838759 -26.588874 0.000000 0.000000 0.000000 -21.761479 -6.346712 1.245892 -54.182146 -3.274870 -7.140917 8.474379 -22.947583 -0.608828 0.000000 0.000000 0.000000 29.369692 -3.946204 -3.007909 58.679963 3.237433 -6.981226 -4.756954 26.406825 0.635789 0.000000 0.000000 0.000000 
